<mxfile host="app.diagrams.net" agent="Mozilla/5.0 (Windows NT 10.0; Win64; x64) AppleWebKit/537.36 (KHTML, like Gecko) Chrome/134.0.0.0 Safari/537.36 Edg/134.0.0.0" version="26.1.0">
  <diagram name="Page-1" id="Pc0-hSVPARN-tbrJhmjw">
    <mxGraphModel dx="1726" dy="1035" grid="0" gridSize="10" guides="1" tooltips="1" connect="1" arrows="1" fold="1" page="0" pageScale="1" pageWidth="850" pageHeight="1100" math="0" shadow="0">
      <root>
        <mxCell id="0" />
        <mxCell id="1" parent="0" />
        <mxCell id="ThEiTlMxH0S53FX_GN_H-4" style="edgeStyle=none;curved=1;rounded=0;orthogonalLoop=1;jettySize=auto;html=1;fontSize=12;startSize=8;endSize=8;" edge="1" parent="1" source="ThEiTlMxH0S53FX_GN_H-3">
          <mxGeometry relative="1" as="geometry">
            <mxPoint x="-125" y="-190.5925925925926" as="targetPoint" />
          </mxGeometry>
        </mxCell>
        <mxCell id="ThEiTlMxH0S53FX_GN_H-3" value="Start" style="rounded=1;whiteSpace=wrap;html=1;" vertex="1" parent="1">
          <mxGeometry x="-185" y="-314" width="120" height="60" as="geometry" />
        </mxCell>
        <mxCell id="ThEiTlMxH0S53FX_GN_H-5" value="Jeder von ihnen, d.h: sowohl der Benutzer als auch der Computer, wird zwei zufällige Karten erhalten" style="rounded=1;whiteSpace=wrap;html=1;" vertex="1" parent="1">
          <mxGeometry x="-185" y="-179" width="128" height="81" as="geometry" />
        </mxCell>
        <mxCell id="ThEiTlMxH0S53FX_GN_H-6" value="" style="endArrow=classic;html=1;rounded=0;fontSize=12;startSize=8;endSize=8;curved=1;" edge="1" parent="1" source="ThEiTlMxH0S53FX_GN_H-5">
          <mxGeometry width="50" height="50" relative="1" as="geometry">
            <mxPoint x="-121" y="-48" as="sourcePoint" />
            <mxPoint x="-121" y="-27.289321881345245" as="targetPoint" />
          </mxGeometry>
        </mxCell>
        <mxCell id="ThEiTlMxH0S53FX_GN_H-7" value="Das score der Karten des User und Computers wird zusammenhinzugefügt" style="rounded=1;whiteSpace=wrap;html=1;" vertex="1" parent="1">
          <mxGeometry x="-188" y="-20" width="141" height="64" as="geometry" />
        </mxCell>
        <mxCell id="ThEiTlMxH0S53FX_GN_H-8" value="" style="endArrow=classic;html=1;rounded=0;fontSize=12;startSize=8;endSize=8;curved=1;" edge="1" parent="1" source="ThEiTlMxH0S53FX_GN_H-7">
          <mxGeometry width="50" height="50" relative="1" as="geometry">
            <mxPoint x="-117.5" y="94" as="sourcePoint" />
            <mxPoint x="-117.5" y="114.71067811865476" as="targetPoint" />
          </mxGeometry>
        </mxCell>
        <mxCell id="ThEiTlMxH0S53FX_GN_H-24" style="edgeStyle=none;curved=1;rounded=0;orthogonalLoop=1;jettySize=auto;html=1;fontSize=12;startSize=8;endSize=8;" edge="1" parent="1" source="ThEiTlMxH0S53FX_GN_H-9">
          <mxGeometry relative="1" as="geometry">
            <mxPoint x="-112.50000000000011" y="293.8571428571429" as="targetPoint" />
          </mxGeometry>
        </mxCell>
        <mxCell id="ThEiTlMxH0S53FX_GN_H-9" value="Hat der User oder der Computer ein Blackjack bekommen? z.b: (ace + 10)" style="rounded=1;whiteSpace=wrap;html=1;" vertex="1" parent="1">
          <mxGeometry x="-185" y="127" width="145" height="59" as="geometry" />
        </mxCell>
        <mxCell id="ThEiTlMxH0S53FX_GN_H-10" value="" style="endArrow=none;html=1;rounded=0;fontSize=12;startSize=8;endSize=8;curved=1;" edge="1" parent="1" source="ThEiTlMxH0S53FX_GN_H-9">
          <mxGeometry width="50" height="50" relative="1" as="geometry">
            <mxPoint x="-40" y="206.5" as="sourcePoint" />
            <mxPoint x="30.710678118654755" y="156.5" as="targetPoint" />
          </mxGeometry>
        </mxCell>
        <mxCell id="ThEiTlMxH0S53FX_GN_H-11" value="" style="endArrow=none;html=1;rounded=0;fontSize=12;startSize=8;endSize=8;curved=1;" edge="1" parent="1">
          <mxGeometry width="50" height="50" relative="1" as="geometry">
            <mxPoint x="30" y="157" as="sourcePoint" />
            <mxPoint x="30" y="62" as="targetPoint" />
          </mxGeometry>
        </mxCell>
        <mxCell id="ThEiTlMxH0S53FX_GN_H-16" value="" style="endArrow=none;html=1;rounded=0;fontSize=12;startSize=8;endSize=8;curved=1;" edge="1" parent="1">
          <mxGeometry width="50" height="50" relative="1" as="geometry">
            <mxPoint x="30" y="62.5" as="sourcePoint" />
            <mxPoint x="216" y="60" as="targetPoint" />
          </mxGeometry>
        </mxCell>
        <mxCell id="ThEiTlMxH0S53FX_GN_H-17" value="" style="endArrow=none;html=1;rounded=0;fontSize=12;startSize=8;endSize=8;curved=1;" edge="1" parent="1">
          <mxGeometry width="50" height="50" relative="1" as="geometry">
            <mxPoint x="31" y="101.5" as="sourcePoint" />
            <mxPoint x="222" y="99" as="targetPoint" />
          </mxGeometry>
        </mxCell>
        <mxCell id="ThEiTlMxH0S53FX_GN_H-18" value="User hat Blackjack" style="text;html=1;align=center;verticalAlign=middle;resizable=0;points=[];autosize=1;strokeColor=none;fillColor=none;fontSize=16;" vertex="1" parent="1">
          <mxGeometry x="44.5" y="15.5" width="151" height="31" as="geometry" />
        </mxCell>
        <mxCell id="ThEiTlMxH0S53FX_GN_H-19" value="Computer hat Blackjack" style="text;html=1;align=center;verticalAlign=middle;resizable=0;points=[];autosize=1;strokeColor=none;fillColor=none;fontSize=16;" vertex="1" parent="1">
          <mxGeometry x="36" y="109" width="187" height="31" as="geometry" />
        </mxCell>
        <mxCell id="ThEiTlMxH0S53FX_GN_H-20" value="" style="endArrow=classic;html=1;rounded=0;fontSize=12;startSize=8;endSize=8;curved=1;" edge="1" parent="1">
          <mxGeometry width="50" height="50" relative="1" as="geometry">
            <mxPoint x="215" y="60" as="sourcePoint" />
            <mxPoint x="299" y="58" as="targetPoint" />
          </mxGeometry>
        </mxCell>
        <mxCell id="ThEiTlMxH0S53FX_GN_H-21" value="" style="endArrow=classic;html=1;rounded=0;fontSize=12;startSize=8;endSize=8;curved=1;" edge="1" parent="1">
          <mxGeometry width="50" height="50" relative="1" as="geometry">
            <mxPoint x="216" y="100" as="sourcePoint" />
            <mxPoint x="300" y="98" as="targetPoint" />
          </mxGeometry>
        </mxCell>
        <mxCell id="ThEiTlMxH0S53FX_GN_H-22" value="Win" style="rounded=1;whiteSpace=wrap;html=1;fillColor=#d5e8d4;strokeColor=#82b366;" vertex="1" parent="1">
          <mxGeometry x="318" y="42" width="62" height="31" as="geometry" />
        </mxCell>
        <mxCell id="ThEiTlMxH0S53FX_GN_H-23" value="Lose" style="rounded=1;whiteSpace=wrap;html=1;fillColor=#f8cecc;strokeColor=#b85450;" vertex="1" parent="1">
          <mxGeometry x="318" y="81" width="62" height="31" as="geometry" />
        </mxCell>
        <mxCell id="ThEiTlMxH0S53FX_GN_H-25" value="Nein" style="text;html=1;align=center;verticalAlign=middle;resizable=0;points=[];autosize=1;strokeColor=none;fillColor=none;fontSize=16;" vertex="1" parent="1">
          <mxGeometry x="-185" y="230" width="51" height="31" as="geometry" />
        </mxCell>
        <mxCell id="ThEiTlMxH0S53FX_GN_H-28" style="edgeStyle=none;curved=1;rounded=0;orthogonalLoop=1;jettySize=auto;html=1;fontSize=12;startSize=8;endSize=8;" edge="1" parent="1" source="ThEiTlMxH0S53FX_GN_H-26">
          <mxGeometry relative="1" as="geometry">
            <mxPoint x="124.85714285714289" y="335" as="targetPoint" />
          </mxGeometry>
        </mxCell>
        <mxCell id="ThEiTlMxH0S53FX_GN_H-44" style="edgeStyle=none;curved=1;rounded=0;orthogonalLoop=1;jettySize=auto;html=1;fontSize=12;startSize=8;endSize=8;" edge="1" parent="1" source="ThEiTlMxH0S53FX_GN_H-26">
          <mxGeometry relative="1" as="geometry">
            <mxPoint x="-113.00000000000023" y="442.25" as="targetPoint" />
          </mxGeometry>
        </mxCell>
        <mxCell id="ThEiTlMxH0S53FX_GN_H-26" value="Ist der User&#39;s score mehr als 21?" style="rounded=1;whiteSpace=wrap;html=1;" vertex="1" parent="1">
          <mxGeometry x="-173" y="305" width="120" height="60" as="geometry" />
        </mxCell>
        <mxCell id="ThEiTlMxH0S53FX_GN_H-29" value="Ja" style="text;html=1;align=center;verticalAlign=middle;resizable=0;points=[];autosize=1;strokeColor=none;fillColor=none;fontSize=16;" vertex="1" parent="1">
          <mxGeometry x="-7.5" y="290.5" width="35" height="31" as="geometry" />
        </mxCell>
        <mxCell id="ThEiTlMxH0S53FX_GN_H-30" value="Haben Sie ein Ace?" style="rounded=1;whiteSpace=wrap;html=1;" vertex="1" parent="1">
          <mxGeometry x="143" y="305" width="120" height="60" as="geometry" />
        </mxCell>
        <mxCell id="ThEiTlMxH0S53FX_GN_H-31" value="" style="endArrow=none;html=1;rounded=0;fontSize=12;startSize=8;endSize=8;curved=1;" edge="1" parent="1" source="ThEiTlMxH0S53FX_GN_H-30">
          <mxGeometry width="50" height="50" relative="1" as="geometry">
            <mxPoint x="203" y="284.28932188134524" as="sourcePoint" />
            <mxPoint x="203" y="234.28932188134524" as="targetPoint" />
          </mxGeometry>
        </mxCell>
        <mxCell id="ThEiTlMxH0S53FX_GN_H-34" value="" style="endArrow=classic;html=1;rounded=0;fontSize=12;startSize=8;endSize=8;curved=1;" edge="1" parent="1">
          <mxGeometry width="50" height="50" relative="1" as="geometry">
            <mxPoint x="203" y="235" as="sourcePoint" />
            <mxPoint x="297" y="235" as="targetPoint" />
          </mxGeometry>
        </mxCell>
        <mxCell id="ThEiTlMxH0S53FX_GN_H-35" value="Nein" style="text;html=1;align=center;verticalAlign=middle;resizable=0;points=[];autosize=1;strokeColor=none;fillColor=none;fontSize=16;" vertex="1" parent="1">
          <mxGeometry x="142.5" y="250.5" width="51" height="31" as="geometry" />
        </mxCell>
        <mxCell id="ThEiTlMxH0S53FX_GN_H-36" value="Lose" style="rounded=1;whiteSpace=wrap;html=1;fillColor=#f8cecc;strokeColor=#b85450;" vertex="1" parent="1">
          <mxGeometry x="314" y="217" width="62" height="31" as="geometry" />
        </mxCell>
        <mxCell id="ThEiTlMxH0S53FX_GN_H-37" style="edgeStyle=none;curved=1;rounded=0;orthogonalLoop=1;jettySize=auto;html=1;fontSize=12;startSize=8;endSize=8;" edge="1" parent="1">
          <mxGeometry relative="1" as="geometry">
            <mxPoint x="440.8571428571429" y="334.64" as="targetPoint" />
            <mxPoint x="263" y="334.64" as="sourcePoint" />
          </mxGeometry>
        </mxCell>
        <mxCell id="ThEiTlMxH0S53FX_GN_H-38" value="Ja" style="text;html=1;align=center;verticalAlign=middle;resizable=0;points=[];autosize=1;strokeColor=none;fillColor=none;fontSize=16;" vertex="1" parent="1">
          <mxGeometry x="314" y="290.5" width="35" height="31" as="geometry" />
        </mxCell>
        <mxCell id="ThEiTlMxH0S53FX_GN_H-39" value="Wird die Ace-Karte als 1 oder 11 gezählt? Ist die Gesamtpunktzahl mehr als 21?" style="whiteSpace=wrap;html=1;aspect=fixed;" vertex="1" parent="1">
          <mxGeometry x="476" y="254.5" width="161" height="161" as="geometry" />
        </mxCell>
        <mxCell id="ThEiTlMxH0S53FX_GN_H-41" value="" style="endArrow=none;html=1;rounded=0;fontSize=12;startSize=8;endSize=8;curved=1;" edge="1" parent="1" source="ThEiTlMxH0S53FX_GN_H-39">
          <mxGeometry width="50" height="50" relative="1" as="geometry">
            <mxPoint x="556.5" y="233.78932188134524" as="sourcePoint" />
            <mxPoint x="557" y="225" as="targetPoint" />
          </mxGeometry>
        </mxCell>
        <mxCell id="ThEiTlMxH0S53FX_GN_H-42" value="" style="endArrow=classic;html=1;rounded=0;fontSize=12;startSize=8;endSize=8;curved=1;" edge="1" parent="1">
          <mxGeometry width="50" height="50" relative="1" as="geometry">
            <mxPoint x="557" y="225" as="sourcePoint" />
            <mxPoint x="393" y="225" as="targetPoint" />
          </mxGeometry>
        </mxCell>
        <mxCell id="ThEiTlMxH0S53FX_GN_H-43" value="Ja" style="text;html=1;align=center;verticalAlign=middle;resizable=0;points=[];autosize=1;strokeColor=none;fillColor=none;fontSize=16;" vertex="1" parent="1">
          <mxGeometry x="457" y="186" width="35" height="31" as="geometry" />
        </mxCell>
        <mxCell id="ThEiTlMxH0S53FX_GN_H-45" value="Nein" style="text;html=1;align=center;verticalAlign=middle;resizable=0;points=[];autosize=1;strokeColor=none;fillColor=none;fontSize=16;" vertex="1" parent="1">
          <mxGeometry x="-173" y="389" width="51" height="31" as="geometry" />
        </mxCell>
        <mxCell id="ThEiTlMxH0S53FX_GN_H-47" style="edgeStyle=none;curved=1;rounded=0;orthogonalLoop=1;jettySize=auto;html=1;fontSize=12;startSize=8;endSize=8;" edge="1" parent="1" source="ThEiTlMxH0S53FX_GN_H-46">
          <mxGeometry relative="1" as="geometry">
            <mxPoint x="122.51724137931046" y="500" as="targetPoint" />
          </mxGeometry>
        </mxCell>
        <mxCell id="ThEiTlMxH0S53FX_GN_H-60" style="edgeStyle=none;curved=1;rounded=0;orthogonalLoop=1;jettySize=auto;html=1;exitX=0.5;exitY=1;exitDx=0;exitDy=0;fontSize=12;startSize=8;endSize=8;" edge="1" parent="1" source="ThEiTlMxH0S53FX_GN_H-46">
          <mxGeometry relative="1" as="geometry">
            <mxPoint x="-113.27272727272748" y="616.8181818181818" as="targetPoint" />
          </mxGeometry>
        </mxCell>
        <mxCell id="ThEiTlMxH0S53FX_GN_H-46" value="Frag der User, ob er eine andere Karte möchte" style="rounded=0;whiteSpace=wrap;html=1;" vertex="1" parent="1">
          <mxGeometry x="-173" y="470" width="120" height="60" as="geometry" />
        </mxCell>
        <mxCell id="ThEiTlMxH0S53FX_GN_H-48" value="Ja" style="text;html=1;align=center;verticalAlign=middle;resizable=0;points=[];autosize=1;strokeColor=none;fillColor=none;fontSize=16;" vertex="1" parent="1">
          <mxGeometry x="-7.5" y="462" width="35" height="31" as="geometry" />
        </mxCell>
        <mxCell id="ThEiTlMxH0S53FX_GN_H-49" value="Eine andere Karte ziehen" style="rounded=1;whiteSpace=wrap;html=1;" vertex="1" parent="1">
          <mxGeometry x="143" y="470" width="120" height="60" as="geometry" />
        </mxCell>
        <mxCell id="ThEiTlMxH0S53FX_GN_H-50" value="" style="endArrow=none;html=1;rounded=0;fontSize=12;startSize=8;endSize=8;curved=1;" edge="1" parent="1" source="ThEiTlMxH0S53FX_GN_H-49">
          <mxGeometry width="50" height="50" relative="1" as="geometry">
            <mxPoint x="263" y="550" as="sourcePoint" />
            <mxPoint x="742" y="500" as="targetPoint" />
          </mxGeometry>
        </mxCell>
        <mxCell id="ThEiTlMxH0S53FX_GN_H-51" value="" style="endArrow=none;html=1;rounded=0;fontSize=12;startSize=8;endSize=8;curved=1;" edge="1" parent="1">
          <mxGeometry width="50" height="50" relative="1" as="geometry">
            <mxPoint x="744" y="501" as="sourcePoint" />
            <mxPoint x="741" y="167" as="targetPoint" />
          </mxGeometry>
        </mxCell>
        <mxCell id="ThEiTlMxH0S53FX_GN_H-52" value="" style="endArrow=classic;html=1;rounded=0;fontSize=12;startSize=8;endSize=8;curved=1;" edge="1" parent="1">
          <mxGeometry width="50" height="50" relative="1" as="geometry">
            <mxPoint x="742" y="168" as="sourcePoint" />
            <mxPoint x="-29" y="167" as="targetPoint" />
          </mxGeometry>
        </mxCell>
        <mxCell id="ThEiTlMxH0S53FX_GN_H-53" value="" style="endArrow=none;html=1;rounded=0;fontSize=12;startSize=8;endSize=8;curved=1;" edge="1" parent="1" source="ThEiTlMxH0S53FX_GN_H-39">
          <mxGeometry width="50" height="50" relative="1" as="geometry">
            <mxPoint x="556.5" y="465.5" as="sourcePoint" />
            <mxPoint x="556" y="444" as="targetPoint" />
          </mxGeometry>
        </mxCell>
        <mxCell id="ThEiTlMxH0S53FX_GN_H-54" value="" style="endArrow=none;html=1;rounded=0;fontSize=12;startSize=8;endSize=8;curved=1;" edge="1" parent="1">
          <mxGeometry width="50" height="50" relative="1" as="geometry">
            <mxPoint x="555" y="445" as="sourcePoint" />
            <mxPoint x="-78" y="443" as="targetPoint" />
          </mxGeometry>
        </mxCell>
        <mxCell id="ThEiTlMxH0S53FX_GN_H-58" value="" style="endArrow=classic;html=1;rounded=0;fontSize=12;startSize=8;endSize=8;curved=1;" edge="1" parent="1">
          <mxGeometry width="50" height="50" relative="1" as="geometry">
            <mxPoint x="-78" y="443" as="sourcePoint" />
            <mxPoint x="-78" y="463" as="targetPoint" />
          </mxGeometry>
        </mxCell>
        <mxCell id="ThEiTlMxH0S53FX_GN_H-59" value="Nein" style="text;html=1;align=center;verticalAlign=middle;resizable=0;points=[];autosize=1;strokeColor=none;fillColor=none;fontSize=16;" vertex="1" parent="1">
          <mxGeometry x="181" y="406" width="51" height="31" as="geometry" />
        </mxCell>
        <mxCell id="ThEiTlMxH0S53FX_GN_H-61" value="Nein" style="text;html=1;align=center;verticalAlign=middle;resizable=0;points=[];autosize=1;strokeColor=none;fillColor=none;fontSize=16;" vertex="1" parent="1">
          <mxGeometry x="-173" y="565" width="51" height="31" as="geometry" />
        </mxCell>
        <mxCell id="ThEiTlMxH0S53FX_GN_H-62" value="Der Computer spielt, wenn das Punktzahl weniger als 11 beträgt, dann zieht er weiterhin Karten" style="rounded=1;whiteSpace=wrap;html=1;" vertex="1" parent="1">
          <mxGeometry x="-172" y="631" width="120" height="75" as="geometry" />
        </mxCell>
        <mxCell id="ThEiTlMxH0S53FX_GN_H-63" style="edgeStyle=none;curved=1;rounded=0;orthogonalLoop=1;jettySize=auto;html=1;exitX=0.5;exitY=1;exitDx=0;exitDy=0;fontSize=12;startSize=8;endSize=8;" edge="1" parent="1">
          <mxGeometry relative="1" as="geometry">
            <mxPoint x="-113.45272727272749" y="792.8181818181818" as="targetPoint" />
            <mxPoint x="-113.18" y="706" as="sourcePoint" />
          </mxGeometry>
        </mxCell>
        <mxCell id="ThEiTlMxH0S53FX_GN_H-71" style="edgeStyle=none;curved=1;rounded=0;orthogonalLoop=1;jettySize=auto;html=1;fontSize=12;startSize=8;endSize=8;" edge="1" parent="1" source="ThEiTlMxH0S53FX_GN_H-64">
          <mxGeometry relative="1" as="geometry">
            <mxPoint x="356" y="1026" as="targetPoint" />
          </mxGeometry>
        </mxCell>
        <mxCell id="ThEiTlMxH0S53FX_GN_H-75" style="edgeStyle=none;curved=1;rounded=0;orthogonalLoop=1;jettySize=auto;html=1;fontSize=12;startSize=8;endSize=8;" edge="1" parent="1" source="ThEiTlMxH0S53FX_GN_H-64">
          <mxGeometry relative="1" as="geometry">
            <mxPoint x="-555" y="1026" as="targetPoint" />
          </mxGeometry>
        </mxCell>
        <mxCell id="ThEiTlMxH0S53FX_GN_H-64" value="Vergleich der Punktzahl zwischen dem Benutzer und dem Computer, um zu sehen, ob der Benutze eine höher Punktzahl hat&amp;nbsp;" style="shape=parallelogram;perimeter=parallelogramPerimeter;whiteSpace=wrap;html=1;fixedSize=1;" vertex="1" parent="1">
          <mxGeometry x="-433.5" y="976" width="643" height="100" as="geometry" />
        </mxCell>
        <mxCell id="ThEiTlMxH0S53FX_GN_H-66" style="edgeStyle=none;curved=1;rounded=0;orthogonalLoop=1;jettySize=auto;html=1;fontSize=12;startSize=8;endSize=8;" edge="1" parent="1" source="ThEiTlMxH0S53FX_GN_H-65">
          <mxGeometry relative="1" as="geometry">
            <mxPoint x="54" y="847" as="targetPoint" />
          </mxGeometry>
        </mxCell>
        <mxCell id="ThEiTlMxH0S53FX_GN_H-69" style="edgeStyle=none;curved=1;rounded=0;orthogonalLoop=1;jettySize=auto;html=1;fontSize=12;startSize=8;endSize=8;" edge="1" parent="1" source="ThEiTlMxH0S53FX_GN_H-65">
          <mxGeometry relative="1" as="geometry">
            <mxPoint x="-112" y="957.7272727272725" as="targetPoint" />
          </mxGeometry>
        </mxCell>
        <mxCell id="ThEiTlMxH0S53FX_GN_H-65" value="Hat der Computer mehr als 21?" style="rounded=1;whiteSpace=wrap;html=1;" vertex="1" parent="1">
          <mxGeometry x="-172" y="817" width="120" height="60" as="geometry" />
        </mxCell>
        <mxCell id="ThEiTlMxH0S53FX_GN_H-67" value="Ja" style="text;html=1;align=center;verticalAlign=middle;resizable=0;points=[];autosize=1;strokeColor=none;fillColor=none;fontSize=16;" vertex="1" parent="1">
          <mxGeometry x="-23" y="806" width="35" height="31" as="geometry" />
        </mxCell>
        <mxCell id="ThEiTlMxH0S53FX_GN_H-68" value="Win" style="rounded=1;whiteSpace=wrap;html=1;fillColor=#d5e8d4;strokeColor=#82b366;" vertex="1" parent="1">
          <mxGeometry x="65" y="831.5" width="62" height="31" as="geometry" />
        </mxCell>
        <mxCell id="ThEiTlMxH0S53FX_GN_H-70" value="Nein" style="text;html=1;align=center;verticalAlign=middle;resizable=0;points=[];autosize=1;strokeColor=none;fillColor=none;fontSize=16;" vertex="1" parent="1">
          <mxGeometry x="-173" y="904" width="51" height="31" as="geometry" />
        </mxCell>
        <mxCell id="ThEiTlMxH0S53FX_GN_H-72" value="User Score" style="text;html=1;align=center;verticalAlign=middle;resizable=0;points=[];autosize=1;strokeColor=none;fillColor=none;fontSize=16;" vertex="1" parent="1">
          <mxGeometry x="220" y="985" width="98" height="31" as="geometry" />
        </mxCell>
        <mxCell id="ThEiTlMxH0S53FX_GN_H-73" value="Weniger" style="text;html=1;align=center;verticalAlign=middle;resizable=0;points=[];autosize=1;strokeColor=none;fillColor=none;fontSize=16;" vertex="1" parent="1">
          <mxGeometry x="222" y="1033" width="77" height="31" as="geometry" />
        </mxCell>
        <mxCell id="ThEiTlMxH0S53FX_GN_H-74" value="Lose" style="rounded=1;whiteSpace=wrap;html=1;fillColor=#f8cecc;strokeColor=#b85450;" vertex="1" parent="1">
          <mxGeometry x="372" y="1010.5" width="62" height="31" as="geometry" />
        </mxCell>
        <mxCell id="ThEiTlMxH0S53FX_GN_H-76" value="User Score" style="text;html=1;align=center;verticalAlign=middle;resizable=0;points=[];autosize=1;strokeColor=none;fillColor=none;fontSize=16;" vertex="1" parent="1">
          <mxGeometry x="-531.5" y="985" width="98" height="31" as="geometry" />
        </mxCell>
        <mxCell id="ThEiTlMxH0S53FX_GN_H-77" value="Höher" style="text;html=1;align=center;verticalAlign=middle;resizable=0;points=[];autosize=1;strokeColor=none;fillColor=none;fontSize=16;" vertex="1" parent="1">
          <mxGeometry x="-513.5" y="1030" width="62" height="31" as="geometry" />
        </mxCell>
        <mxCell id="ThEiTlMxH0S53FX_GN_H-78" value="Win" style="rounded=1;whiteSpace=wrap;html=1;fillColor=#d5e8d4;strokeColor=#82b366;" vertex="1" parent="1">
          <mxGeometry x="-630" y="1010.5" width="62" height="31" as="geometry" />
        </mxCell>
      </root>
    </mxGraphModel>
  </diagram>
</mxfile>
